<?xml version="1.0" standalone="no"?>
<!DOCTYPE svg PUBLIC "-//W3C//DTD SVG 1.1//EN" "http://www.w3.org/Graphics/SVG/1.1/DTD/svg11.dtd" >
<svg xmlns="http://www.w3.org/2000/svg">
<defs>
  <font id="Nucleo" horiz-adv-x="256">
    <font-face font-family="Nucleo"
      units-per-em="256" ascent="256"
      descent="0" />
    <missing-glyph horiz-adv-x="0" />
    <glyph glyph-name="envelope"
      unicode="&#xEA02;"
      horiz-adv-x="256" d="M41.5 218.609C28.016 214.369 17.331 201.771 14.965 187.321C13.723 179.737 13.723 76.263 14.965 68.679C17.031 56.064 24.967 45.384 36.687 39.445L42.5 36.5L125.805 36.228C216.491 35.931 213.941 35.791 223.126 41.571C232.728 47.612 239.183 57.232 240.953 68.138C242.331 76.634 242.331 179.366 240.953 187.862C238.64 202.114 227.926 214.386 214.143 218.569C207.691 220.527 47.719 220.564 41.5 218.609M210.677 196.914C216.021 194.328 219.121 190.109 219.744 184.577L220.222 180.336L174.547 155.168C149.426 141.326 128.48 130 128 130C127.52 130 106.574 141.326 81.453 155.168L35.778 180.336L36.249 184.52C36.848 189.828 40.216 194.403 45.425 196.981C49.407 198.952 51.29 198.998 127.934 198.999C205.401 199 206.422 198.974 210.677 196.914M73.783 135.126C123.116 107.823 120.673 109 128 109C135.327 109 132.884 107.823 182.217 135.126C202.962 146.607 220.2 156 220.526 156C220.851 156 220.978 136.763 220.809 113.25C220.46 64.966 220.52 65.358 212.667 60.161L208.647 57.5L129.176 57.232C51.269 56.97 49.623 57.004 45.543 58.979C40.192 61.569 37.197 65.686 35.976 72.129C34.98 77.38 34.565 156 35.533 156C35.826 156 53.038 146.607 73.783 135.126" />
    <glyph glyph-name="lock"
      unicode="&#xEA03;"
      horiz-adv-x="256" d="M119.5 240.909C106.157 239.024 93.019 231.44 83.717 220.252C73.376 207.815 71 198.238 71 169L71 149.176L67.106 148.518C56.001 146.642 44.417 137.391 39.18 126.218L36.5 120.5L36.215 83.738C35.904 43.686 36.132 41.517 41.571 32.874C47.612 23.272 57.232 16.817 68.138 15.047C76.246 13.732 179.355 13.66 187.321 14.965C199.936 17.031 210.616 24.967 216.555 36.687L219.5 42.5L219.5 81.5L219.5 120.5L216.82 126.218C211.583 137.391 199.999 146.642 188.894 148.518L185 149.176L185 169C185 190.97 183.716 200.514 179.594 209.183C174.141 220.649 161.352 232.619 149.438 237.406C144.209 239.507 130.255 242.248 126.678 241.878C126.03 241.811 122.8 241.375 119.5 240.909M143 216.887C150.48 213.376 156.572 207.14 160.298 199.178L163.405 192.538L163.452 171.019L163.5 149.5L128 149.5L92.5 149.5L92.554 171C92.607 192.114 92.656 192.604 95.273 198.302C99.856 208.283 105.292 213.664 114.843 217.674C122.732 220.987 134.996 220.644 143 216.887M187.685 126.933C191.478 125.496 194.801 122.268 197.097 117.79C198.851 114.369 199 111.564 199 81.856C199 51.691 198.872 49.368 197.003 45.506C194.388 40.104 190.248 37.163 183.505 35.916C180.103 35.287 157.64 35.016 124.262 35.202C63.596 35.538 65.479 35.3 60.161 43.331L57.5 47.35L57.212 80.64C56.941 111.888 57.042 114.162 58.855 117.715C61.056 122.027 63.987 124.943 67.841 126.656C71.42 128.246 183.534 128.506 187.685 126.933M125.388 99.287C124.226 99.072 121.976 97.541 120.388 95.883C117.742 93.122 117.47 92.149 117.141 84.271C116.687 73.427 118.065 68.541 122.304 65.956C126.352 63.488 129.648 63.488 133.696 65.956C137.94 68.544 139.312 73.424 138.859 84.318C138.524 92.393 138.302 93.153 135.5 95.863C132.415 98.845 129.092 99.97 125.388 99.287" />
    <glyph glyph-name="hide"
      unicode="&#xEA04;"
      horiz-adv-x="256" d="M213.895 225.4L188.295 199.8L179.898 203.85C170.623 208.324 158.955 212.206 149 214.13C139.055 216.053 114.183 215.776 104.204 213.632C70.05 206.294 42.036 185.816 20.409 152.38C13.907 142.329 8 130.724 8 128.003C8 125.202 15.183 111.109 21.253 102C28.852 90.597 36.224 81.95 45.628 73.413L54.156 65.671L29.337 40.837L4.518 16.003L10.264 10.257L16.01 4.511L133.738 122.239L251.465 239.966L246.017 245.483C243.02 248.517 240.327 251 240.032 251C239.737 251 227.975 239.48 213.895 225.4M141.026 198.978C150.878 197.79 160.846 194.995 169.948 190.869L176.396 187.946L169.128 180.629L161.86 173.312L153.18 177.684C131.233 188.738 107.086 184.986 89.323 167.763C71.25 150.238 67.015 125.257 78.315 102.823L82.685 94.145L74.052 85.552L65.419 76.959L58.394 83.229C47.201 93.221 33.951 110.157 26.929 123.446L24.5 128.044L26.871 132.272C36.984 150.308 52.592 169.013 65.882 179.023C87.573 195.363 113.63 202.282 141.026 198.978M208.016 174.123C202.947 169.636 202.644 169.127 204.016 167.394C204.832 166.363 207.95 162.593 210.945 159.016C217.265 151.468 229.822 132.516 230.636 129.298C231.287 126.723 224.013 114.121 214.875 101.995C208.15 93.07 194.347 79.667 186.154 74.107C159.216 55.825 126.808 51.428 93.806 61.578C92.45 61.995 91.699 60.767 90.056 55.444C88.925 51.784 88 48.233 88 47.552C88 46.118 101.412 42.683 113.94 40.909C134.08 38.058 161.018 42.501 179.5 51.724C196.811 60.362 211.66 72.485 224.432 88.408C236.279 103.176 248.021 123.029 247.983 128.225C247.963 131.042 241.213 143.707 233.715 155C227.862 163.815 216.248 178.119 214.5 178.664C213.95 178.836 211.032 176.792 208.016 174.123M144.193 164.333L150.147 161.661L122.324 133.804L94.5 105.947L91.816 111.597C82.789 130.604 91.326 154.092 110.844 163.944C120.396 168.765 133.964 168.924 144.193 164.333M170.75 138.284C168.081 137.879 168 137.68 168 131.483C168 112.689 159.475 98.685 143.614 91.424C139.137 89.374 135.757 88.688 128.045 88.263L118.194 87.72L117.597 84.735C117.269 83.093 117 79.556 117 76.875L117 72L124.25 72.008C142.594 72.027 154.757 76.679 166.677 88.237C178.864 100.054 183.973 112.893 183.992 131.75L184 139L178.75 138.85C175.863 138.768 172.262 138.513 170.75 138.284" />
    <glyph glyph-name="view"
      unicode="&#xEA05;"
      horiz-adv-x="256" d="M114.5 215.38C97.938 212.853 86.213 209.215 73.536 202.668C55.288 193.243 35.65 175.265 23.033 156.432C15.63 145.381 8 130.951 8 128C8 125.049 15.63 110.619 23.033 99.568C42.933 69.865 72.049 49.303 104 42.39C115.809 39.834 140.191 39.834 152 42.39C183.951 49.303 213.067 69.865 232.967 99.568C240.37 110.619 248 125.049 248 128C248 130.951 240.37 145.381 232.967 156.432C213.469 185.535 184.873 206.067 154 213.128C145.706 215.026 121.295 216.417 114.5 215.38M142.636 198.918C165.58 195.727 186.465 184.572 204.534 165.857C214.763 155.263 220.931 146.996 226.995 135.75L231.174 128L226.995 120.25C214.853 97.734 194.27 77.146 173.5 66.742C150.198 55.072 122.401 52.86 97.541 60.7C80.286 66.142 65.543 75.563 51.466 90.143C41.237 100.737 35.069 109.004 29.005 120.25L24.826 128L29.005 135.75C35.069 146.996 41.237 155.263 51.466 165.857C76.926 192.226 108.48 203.668 142.636 198.918M116.5 182.837C113.75 182.32 107.811 180.119 103.302 177.945C69.127 161.471 61.553 115.558 88.556 88.556C115.604 61.507 161.413 69.114 178.014 103.41C198.306 145.335 162.558 191.493 116.5 182.837M144.429 164.18C153.452 159.957 159.29 154.215 163.765 145.16C167.294 138.02 167.5 137.075 167.5 128C167.5 118.925 167.294 117.98 163.765 110.84C159.267 101.738 153.477 96.069 144.18 91.665C138.139 88.803 136.591 88.5 128 88.5C119.409 88.5 117.861 88.803 111.82 91.665C102.523 96.069 96.733 101.738 92.235 110.84C88.71 117.972 88.5 118.933 88.5 127.948C88.5 136.598 88.799 138.131 91.665 144.18C95.683 152.662 101.404 158.871 108.866 162.848C116.743 167.046 121.053 167.996 130.249 167.558C136.251 167.272 139.448 166.511 144.429 164.18" />
    <glyph glyph-name="house-6"
      unicode="&#xEA06;"
      horiz-adv-x="256" d="M123.425 235.583C117.879 233.168 24.342 170.25 22.144 167.456C20.606 165.5 20 163.327 20 159.765C20 155.452 20.446 154.354 23.4 151.4C26.374 148.426 27.437 148 31.876 148C36.863 148 37.734 148.522 81.983 178C106.751 194.5 127.458 208 128 208C128.542 208 149.249 194.5 174.017 178C218.266 148.522 219.137 148 224.124 148C228.563 148 229.626 148.426 232.6 151.4C235.554 154.354 236 155.452 236 159.765C236 163.327 235.394 165.5 233.856 167.456C231.548 170.39 137.802 233.349 132.348 235.628C128.35 237.298 127.354 237.293 123.425 235.583M48.247 140.282C47.008 140.05 44.42 138.376 42.497 136.562L39 133.264L39 100.1C39 69.141 39.139 66.524 41.085 60.718C43.789 52.653 46.192 48.791 52.934 41.672C59.006 35.261 67.531 30.044 76 27.558C84.221 25.144 171.779 25.144 180 27.558C188.469 30.044 196.994 35.261 203.066 41.672C209.808 48.791 212.211 52.653 214.915 60.718C216.86 66.521 217 69.144 217 99.892L217 132.847L214.436 135.894C209.014 142.338 199.636 141.743 194 134.599C192.764 133.032 192.412 127.129 192 101.099C191.524 71.002 191.396 69.305 189.309 65.405C188.104 63.153 185.437 59.834 183.382 58.03C176.96 52.392 174.068 51.65 156.75 51.2L141 50.79L141 70.927C141 92.903 140.418 95.953 135.486 99.832C131.698 102.812 124.302 102.812 120.514 99.832C115.582 95.953 115 92.903 115 70.927L115 50.79L99.25 51.2C78.505 51.739 73.807 53.759 67.161 65L64.5 69.5L64 101C63.553 129.168 63.31 132.78 61.701 135.149C59.268 138.732 52.917 141.155 48.247 140.282" />
    <glyph glyph-name="credit-card"
      unicode="&#xEA07;"
      horiz-adv-x="256" d="M41.992 211.576C28.542 207.861 17.365 194.978 14.986 180.449C13.717 172.704 13.717 83.296 14.986 75.551C17.408 60.759 28.599 48.057 42.462 44.365C49.944 42.373 206.163 42.402 213.657 44.397C224.398 47.257 234.631 56.751 239.335 68.22C241.464 73.412 241.5 74.405 241.5 128C241.5 181.595 241.464 182.588 239.335 187.78C234.631 199.249 224.398 208.743 213.657 211.603C206.487 213.512 48.911 213.487 41.992 211.576M208.685 190.936C212.14 189.631 216.696 185.423 218.6 181.78C219.381 180.284 220.307 175.671 220.657 171.53L221.293 164L128 164L34.707 164L35.343 171.53C35.693 175.671 36.619 180.284 37.4 181.78C39.223 185.27 43.799 189.607 47 190.879C50.57 192.299 204.935 192.353 208.685 190.936M220.824 109.75C220.545 81.973 220.27 77.084 218.839 74.5C216.645 70.536 212.176 66.382 208.685 65.064C206.784 64.345 180.587 64 128 64C75.413 64 49.216 64.345 47.315 65.064C43.824 66.382 39.355 70.536 37.161 74.5C35.73 77.084 35.455 81.973 35.176 109.75L34.853 142L128 142L221.147 142L220.824 109.75M56.378 105.563C54.661 104.816 52.524 103.158 51.628 101.88C49.539 98.896 49.54 93.102 51.631 90.117C54.807 85.582 58.29 85 82.218 85.002C101.428 85.003 104.983 85.244 108 86.752C115.647 90.572 115.378 102.273 107.568 105.536C102.71 107.566 61.031 107.588 56.378 105.563M177.388 106.02C170.77 103.346 168.955 94.321 173.918 88.766C176.728 85.621 177.161 85.487 185.581 85.141C199.755 84.558 206 87.853 206 95.912C206 100.459 203.727 103.798 199.401 105.606C195.723 107.142 180.859 107.422 177.388 106.02" />
    <glyph glyph-name="arrow-up-2"
      unicode="&#xEA0A;"
      horiz-adv-x="256" d="M124.5 229.92C122.465 229.344 110.81 218.363 88.269 195.785C69.992 177.478 54.279 161.417 53.352 160.093C51.215 157.041 51.175 150.015 53.278 147.013C57.009 141.687 64.165 139.498 69.316 142.106C70.517 142.714 81.287 152.948 93.25 164.848L115 186.483L115 111.709C115 30.563 114.865 32.611 120.514 28.168C124.302 25.188 131.698 25.188 135.486 28.168C141.135 32.611 141 30.563 141 111.709L141 186.483L162.75 164.848C174.713 152.948 185.483 142.714 186.684 142.106C191.839 139.496 199.21 141.62 202.518 146.668C204.801 150.152 204.866 156.925 202.647 160.093C200.447 163.235 135.958 227.907 134 228.935C131.227 230.392 127.521 230.776 124.5 229.92" />
    <glyph glyph-name="chevron-left"
      unicode="&#xEA0B;"
      horiz-adv-x="256" d="M111.836 180.25C80.481 148.88 64.89 132.595 64.446 130.75C64.081 129.238 64.081 126.763 64.446 125.25C64.89 123.405 80.481 107.12 111.836 75.75L158.565 29L163.177 29C166.886 29 168.396 29.568 170.894 31.901C173.442 34.281 174 35.579 174 39.124L174 43.445L131.766 85.723L89.532 128L131.766 170.277C173.726 212.28 174 212.581 174 216.672C174 219.834 173.328 221.508 171.099 223.894C168.63 226.537 167.48 227 163.381 227L158.565 227L111.836 180.25" />
    <glyph glyph-name="chevron-right"
      unicode="&#xEA0C;"
      horiz-adv-x="256" d="M84.901 223.894C82.672 221.508 82 219.834 82 216.672C82 212.581 82.274 212.28 124.234 170.277L166.468 128L124.234 85.723L82 43.445L82 39.124C82 35.579 82.558 34.281 85.106 31.901C87.604 29.568 89.114 29 92.823 29L97.435 29L144.164 75.75C175.519 107.12 191.11 123.405 191.554 125.25C191.919 126.763 191.919 129.238 191.554 130.75C191.11 132.595 175.519 148.88 144.164 180.25L97.435 227L92.619 227C88.52 227 87.37 226.537 84.901 223.894" />
    <glyph glyph-name="wallet-2"
      unicode="&#xEA0D;"
      horiz-adv-x="256" d="M117.667 246.005C92.458 241.71 69.733 237.672 67.167 237.033C47.239 232.068 30.027 214.963 23.363 193.5C21.628 187.911 21.5 183.117 21.5 123.5L21.5 59.5L23.786 53.845C28.082 43.22 38.311 33.47 48.262 30.515C55.798 28.277 200.086 28.242 207.61 30.477C217.751 33.488 228.085 43.343 232.058 53.79C233.766 58.282 234.343 62.483 234.763 73.48L235.296 87.461L240.189 91.86C247.362 98.309 248.242 101.005 248.765 118.129C249.354 137.406 248.106 142.117 240.426 149.615L235 154.913L234.994 164.706C234.991 170.093 234.55 177.175 234.015 180.445C231.964 192.967 223.732 203.863 212.189 209.331L205.5 212.5L135 213C66.367 213.487 64.646 213.546 70 215.228C74.804 216.737 166.702 233 170.426 233C171.202 233 172.763 231.502 173.894 229.672C178.72 221.864 188.43 222.129 192.594 230.182C195.831 236.441 191.033 245.646 181.764 250.962C177.316 253.513 175.492 253.968 170 253.898C166.425 253.852 142.875 250.3 117.667 246.005M201.685 190.936C205.134 189.633 209.695 185.425 211.589 181.8C212.565 179.932 213 175.557 213 167.61L213 156.121L194.25 155.811C176.475 155.516 175.214 155.365 170 152.903C162.556 149.388 156.425 143.134 152.773 135.329C150.199 129.827 149.743 127.674 149.778 121.17C149.844 108.877 154.472 99.494 163.872 92.594C172.032 86.604 175.473 85.798 195.25 85.247L213 84.752L213 73.762C213 60.795 211.232 56.392 204.423 52.402L200.324 50L128.122 50C57.914 50 55.812 50.055 52.003 51.998C49.585 53.232 47.113 55.657 45.543 58.336L43 62.676L43 120.888C43 169.051 43.244 179.565 44.411 181.8C46.225 185.272 50.806 189.609 54 190.879C57.565 192.297 197.941 192.351 201.685 190.936M226.965 133.066C228.07 131 228.376 113.006 227.37 109.25C226.767 107.002 226.752 107 204.351 107C179.206 107 176.708 107.501 173.152 113.253C168.975 120.013 171.328 129.561 178.062 133.173C181.069 134.785 184.079 135 203.699 135C224.654 135 225.989 134.889 226.965 133.066" />
    <glyph glyph-name="profile"
      unicode="&#xEA0E;"
      horiz-adv-x="256" d="M115.5 254.55C96.027 249.763 80.392 233.698 76.034 214C75.226 210.347 74.942 201.952 75.187 189C75.511 171.871 75.825 168.775 77.776 163.539C83.41 148.418 95.479 136.379 110.652 130.747C119.051 127.629 136.949 127.629 145.348 130.747C160.521 136.379 172.59 148.418 178.224 163.539C180.175 168.775 180.489 171.871 180.813 189C181.206 209.781 180.507 215.562 176.517 224.5C171.655 235.393 160.612 246.565 150.043 251.286C139.853 255.837 126.045 257.142 115.5 254.55M140.631 231.842C147.562 229.28 154.943 221.442 157.921 213.48C159.98 207.979 160.129 206.139 159.821 190.006C159.503 173.338 159.361 172.26 156.843 167.48C144.377 143.809 111.623 143.809 99.157 167.48C96.639 172.26 96.497 173.338 96.179 190.006C95.872 206.119 96.022 207.984 98.069 213.455C104.566 230.82 122.471 238.555 140.631 231.842M104.5 116.378C93.641 115.258 77.913 112.76 73 111.374C56.383 106.687 42.795 93.808 37.262 77.5C34.217 68.525 18.771 13.896 19.166 13.501C19.817 12.849 50.54 6.886 63 4.992C84.782 1.681 100.752 0.603 128 0.603C155.265 0.603 171.25 1.683 193 4.996C206.192 7.005 236.117 12.783 236.784 13.45C237.215 13.882 222.001 67.885 218.738 77.5C213.207 93.802 199.595 106.702 183 111.369C171.166 114.698 156.645 116.167 132.5 116.48C119.3 116.651 106.7 116.605 104.5 116.378M163 93.536C169.325 92.663 176.727 91.219 179.45 90.328C184.697 88.609 192.569 82.051 195.948 76.584C197.749 73.671 210 33.583 210 30.605C210 29.144 209.12 28.949 189.5 26.069C167.587 22.852 151.477 21.711 128 21.711C104.523 21.711 88.413 22.852 66.5 26.069C46.88 28.949 46 29.144 46 30.605C46 32.605 57.87 72.888 59.181 75.337C59.802 76.498 62.544 79.809 65.274 82.696C71.612 89.397 76.84 91.376 93.57 93.405C100.681 94.268 107.85 95.166 109.5 95.402C115.848 96.311 152.042 95.048 163 93.536" />
    <glyph glyph-name="archive-export"
      unicode="&#xEA0F;"
      horiz-adv-x="256" d="M62.308 228.086C45.831 223.372 31.854 209.055 27.533 192.465C26.24 187.502 26 177.406 26 128.018C26 74.049 26.145 68.932 27.855 62.766C32.527 45.917 46.705 31.916 63.535 27.533C72.296 25.251 183.704 25.251 192.465 27.533C209.295 31.916 223.473 45.917 228.145 62.766C229.855 68.932 230 74.049 230 128.018C230 191.834 229.924 192.823 224.217 203.373C220.474 210.293 212.313 218.835 205.567 222.895C198.469 227.166 188.385 230 180.287 230C174.858 230 173.62 229.632 170.917 227.218C168.52 225.076 167.681 223.353 167.274 219.734C166.254 210.686 170.617 205.861 181 204.558C191.369 203.257 198.84 198.073 202.699 189.5C204.34 185.856 204.526 181.171 204.794 136.824C205.116 83.6 205.065 83.059 199.384 79.328C197.1 77.828 193.868 77.41 181.373 77C161.795 76.357 161.104 75.922 155.342 60.603C152.056 51.867 150.953 51.5 128 51.5C105.047 51.5 103.944 51.867 100.658 60.603C94.896 75.922 94.205 76.357 74.627 77C62.132 77.41 58.9 77.828 56.616 79.328C50.935 83.059 50.884 83.6 51.206 136.824C51.474 181.171 51.66 185.856 53.301 189.5C57.16 198.073 64.631 203.257 75 204.558C85.383 205.861 89.746 210.686 88.726 219.734C88.319 223.353 87.48 225.076 85.083 227.218C82.306 229.699 81.239 229.992 75.234 229.929C71.53 229.89 65.714 229.06 62.308 228.086M124.309 217.332C122.057 216.864 80.479 175.631 78.291 171.696C74.057 164.079 80.424 154 89.47 154C94.645 154 96.39 155.127 106.25 164.84L115 173.458L115.004 142.979C115.007 114.532 115.137 112.287 116.956 109.304C122.461 100.275 133.539 100.275 139.044 109.304C140.863 112.287 140.993 114.532 140.996 142.979L141 173.458L149.75 164.84C159.61 155.127 161.355 154 166.53 154C175.427 154 181.788 163.707 177.877 171.316C176.841 173.332 138.455 212.976 134.949 215.651C133.099 217.063 127.371 217.968 124.309 217.332" />
    <glyph glyph-name="archive-download"
      unicode="&#xEA10;"
      horiz-adv-x="256" d="M62.308 228.086C45.831 223.372 31.854 209.055 27.533 192.465C26.24 187.502 26 177.406 26 128.018C26 74.049 26.145 68.932 27.855 62.766C32.527 45.917 46.705 31.916 63.535 27.533C72.296 25.251 183.704 25.251 192.465 27.533C209.295 31.916 223.473 45.917 228.145 62.766C229.855 68.932 230 74.049 230 128.018C230 191.834 229.924 192.823 224.217 203.373C220.474 210.293 212.313 218.835 205.567 222.895C198.469 227.166 188.385 230 180.287 230C174.858 230 173.62 229.632 170.917 227.218C168.52 225.076 167.681 223.353 167.274 219.734C166.254 210.686 170.617 205.861 181 204.558C191.369 203.257 198.84 198.073 202.699 189.5C204.34 185.856 204.526 181.171 204.794 136.824C205.116 83.6 205.065 83.059 199.384 79.328C197.1 77.828 193.868 77.41 181.373 77C161.795 76.357 161.104 75.922 155.342 60.603C152.056 51.867 150.953 51.5 128 51.5C105.047 51.5 103.944 51.867 100.658 60.603C94.896 75.922 94.205 76.357 74.627 77C62.132 77.41 58.9 77.828 56.616 79.328C50.935 83.059 50.884 83.6 51.206 136.824C51.474 181.171 51.66 185.856 53.301 189.5C57.16 198.073 64.631 203.257 75 204.558C85.383 205.861 89.746 210.686 88.726 219.734C88.319 223.353 87.48 225.076 85.083 227.218C82.306 229.699 81.239 229.992 75.234 229.929C71.53 229.89 65.714 229.06 62.308 228.086M120.514 227.832C115.18 223.637 115 222.167 115 182.803L115 146.542L106.25 155.16C96.39 164.873 94.645 166 89.47 166C80.424 166 74.057 155.921 78.291 148.304C78.963 147.097 89.07 136.466 100.752 124.68C122.845 102.391 124.323 101.315 131.004 102.651C133.214 103.093 139.623 108.916 155.248 124.68C166.93 136.466 177.037 147.097 177.709 148.304C181.943 155.921 175.576 166 166.53 166C161.355 166 159.61 164.873 149.75 155.16L141 146.542L141 182.803C141 222.167 140.82 223.637 135.486 227.832C131.698 230.812 124.302 230.812 120.514 227.832" />
    <glyph glyph-name="id-badge"
      unicode="&#xEA11;"
      horiz-adv-x="256" d="M117.524 227.937C112.139 225.251 107.482 220.557 105.033 215.347C103.159 211.359 103 209.072 103 186.044L103 161.067L106.533 157.533L110.067 154L128 154L145.933 154L149.467 157.533L153 161.067L153 185.911C153 213.502 152.733 214.969 146.448 221.926C144.519 224.061 140.934 226.751 138.482 227.904C132.579 230.678 123.05 230.693 117.524 227.937M56.732 203.963C45.638 202.097 35.076 193.962 29.781 183.206L26.5 176.542L26.5 121.521L26.5 66.5L29.204 60.73C32.569 53.549 40.648 45.529 47.983 42.088L53.5 39.5L128 39.5L202.5 39.5L208.27 42.204C215.451 45.569 223.471 53.648 226.912 60.983L229.5 66.5L229.775 120.146C230.045 172.794 230.01 173.897 227.918 179.489C226.746 182.623 223.901 187.5 221.596 190.327C213.774 199.924 206.02 203.611 191.409 204.682C179.736 205.537 174.728 204.553 170.507 200.572C167.361 197.604 167 196.723 167 192C167 187.302 167.368 186.389 170.422 183.509C174.38 179.776 177.353 179.006 187.875 178.985C196.64 178.968 199.531 177.82 202.72 173.088L205 169.704L204.996 121.602C204.993 76.303 204.883 73.32 203.114 70.42C199.086 63.813 201.266 64 128.067 64C55.118 64 57.121 63.833 53.152 70.253C51.027 73.692 51 74.348 51 121.72L51 169.704L53.28 173.088C56.494 177.856 59.359 178.968 68.5 178.991C78.726 179.017 83.236 180.303 86.436 184.106C92.038 190.763 88.62 201.623 80.186 203.965C75.953 205.141 63.727 205.139 56.732 203.963M78 139.867C73.015 138.39 68.301 134.511 65.991 129.982C64.233 126.536 64 124.08 64 108.99C64 90.531 64.458 88.477 69.864 82.668C74.503 77.685 77.66 77 96 77C114.34 77 117.497 77.685 122.136 82.668C127.559 88.495 128 90.499 128 109.337L128 126.774L124.75 131.567C119.418 139.431 116.337 140.464 97.5 140.702C88.7 140.813 79.925 140.437 78 139.867M143 126C140.984 123.984 140.407 120.433 141.765 118.4C143.707 115.492 147.357 115 166.98 115C186.999 115 187.102 115.011 189.545 117.455C192.521 120.43 192.675 123.325 190 126C188.124 127.876 186.667 128 166.5 128C146.333 128 144.876 127.876 143 126M142.672 100.19C140.463 97.75 140.548 93.719 142.85 91.635C144.485 90.156 147.311 89.992 167.063 90.23L189.425 90.5L190.962 93.25C192.346 95.724 192.346 96.276 190.962 98.75L189.425 101.5L166.884 101.768C146.039 102.016 144.217 101.898 142.672 100.19" />
    <glyph glyph-name="cogwheel"
      unicode="&#xEA12;"
      horiz-adv-x="256" d="M245.3333333333333 109.3333333333333V146.6666666666667L219.904 155.6373333333334C218.0266666666667 161.856 215.5626666666667 167.8186666666667 212.5333333333333 173.4293333333334L224.1706666666667 197.76L197.7706666666667 224.16L173.44 212.5226666666667C167.8186666666667 215.552 161.856 218.016 155.648 219.8933333333334L146.6773333333333 245.3226666666667H109.344L100.3733333333333 219.8933333333334C94.1546666666667 218.016 88.192 215.552 82.5813333333333 212.5226666666667L58.2506666666667 224.16L31.8506666666667 197.76L43.488 173.4293333333334C40.4586666666667 167.808 37.9946666666667 161.8453333333334 36.1173333333333 155.6373333333334L10.688 146.6666666666667V109.3333333333334L36.1173333333333 100.3626666666667C37.9946666666667 94.144 40.4586666666667 88.1813333333334 43.488 82.5706666666667L31.8506666666667 58.24L58.2506666666667 31.84L82.5813333333333 43.4773333333334C88.2026666666667 40.448 94.1653333333333 37.984 100.3733333333333 36.1066666666667L109.344 10.6773333333334H146.6773333333333L155.648 36.1066666666667C161.8666666666667 37.984 167.8293333333333 40.448 173.44 43.4773333333334L197.7706666666667 31.84L224.1706666666667 58.24L212.5333333333333 82.5706666666667C215.5626666666667 88.192 218.0266666666667 94.1546666666667 219.904 100.3626666666667L245.3333333333333 109.3333333333333zM128 85.3333333333333C104.4693333333333 85.3333333333333 85.3333333333333 104.4693333333333 85.3333333333333 128S104.4693333333333 170.6666666666667 128 170.6666666666667S170.6666666666666 151.5306666666667 170.6666666666666 128S151.5306666666666 85.3333333333333 128 85.3333333333333z" />
    <glyph glyph-name="grid-interface"
      unicode="&#xEA13;"
      horiz-adv-x="256" d="M36.543 233.568C32.971 232.585 30.417 230.966 27.4 227.773C21.304 221.322 20.8 217.707 21.181 183.26C21.498 154.704 21.518 154.469 24 150.082C25.416 147.58 28.607 144.22 31.359 142.332L36.218 139L68.544 139C88.868 139 101.915 139.393 103.685 140.06C107.534 141.508 113.846 147.779 115.575 151.872C116.709 154.556 117 161.834 117 187.513L117 219.782L113.668 224.641C111.78 227.393 108.42 230.584 105.918 232C101.504 234.498 101.47 234.5 71.5 234.716C48.703 234.88 40.31 234.604 36.543 233.568M155.34 234.042C150.064 232.785 145.866 229.747 142.348 224.641L139 219.782L139 187.513C139 161.834 139.291 154.556 140.425 151.872C142.154 147.779 148.466 141.508 152.315 140.06C154.085 139.393 167.132 139 187.456 139L219.782 139L224.641 142.332C227.393 144.22 230.584 147.58 232 150.082C234.482 154.469 234.502 154.704 234.819 183.26C235.208 218.424 234.747 221.522 228.133 228.124C224.467 231.782 222.393 232.982 218.201 233.874C212.261 235.136 160.514 235.275 155.34 234.042M96 186.5L96 160L69.5 160L43 160L43 186.5L43 213L69.5 213L96 213L96 186.5M213 186.5L213 160L186.5 160L160 160L160 186.5L160 213L186.5 213L213 213L213 186.5M31.783 114.078C28.985 112.303 26.061 109.259 24.338 106.328L21.5 101.5L21.181 72.74C20.792 37.58 21.253 34.482 27.867 27.867C34.482 21.253 37.58 20.792 72.74 21.181L101.5 21.5L106.328 24.338C109.259 26.061 112.303 28.985 114.078 31.783L117 36.392L117 68.631C117 88.893 116.606 101.916 115.94 103.685C114.492 107.534 108.221 113.846 104.128 115.575C101.445 116.709 94.178 117 68.574 117L36.392 117L31.783 114.078M151.757 115.621C147.852 113.89 142.001 108.059 140.381 104.282C139.301 101.766 139 94.01 139 68.728L139 36.392L141.922 31.783C143.697 28.985 146.741 26.061 149.672 24.338L154.5 21.5L183.26 21.181C218.42 20.792 221.518 21.253 228.133 27.867C234.747 34.482 235.208 37.58 234.819 72.74L234.5 101.5L231.662 106.328C229.939 109.259 227.015 112.303 224.217 114.078L219.608 117L187.054 116.919C163.823 116.861 153.714 116.489 151.757 115.621M96 69.5L96 43L69.5 43L43 43L43 69.5L43 96L69.5 96L96 96L96 69.5M213 69.5L213 43L186.5 43L160 43L160 69.5L160 96L186.5 96L213 96L213 69.5" />
    <glyph glyph-name="alarm"
      unicode="&#xEA14;"
      horiz-adv-x="256" d="M113.5 246.55C97.572 244.058 85.497 237.497 72 224C62.165 214.165 57.6 207.536 53.254 196.779C48.728 185.574 48.015 176.349 48.007 128.932C47.999 78.308 47.963 78.046 40.16 70.746C36.399 67.228 34.048 65.93 29.657 64.948L24 63.682L24 55.841L24 48L128 48L232 48L232 55.841L232 63.682L226.343 64.948C221.952 65.93 219.601 67.228 215.84 70.746C208.037 78.046 208.001 78.308 207.993 128.932C207.985 176.349 207.272 185.574 202.746 196.779C198.4 207.536 193.835 214.165 184 224C170.186 237.814 158.388 244.097 141.5 246.634C130.758 248.247 124.222 248.228 113.5 246.55M146.674 229.182C162.624 224.209 177.336 211.776 184.787 196.973C191.594 183.451 191.998 179.634 192.016 128.662C192.032 81.095 192.353 77.43 197.266 68.64L199.859 64L128 64L56.141 64L58.624 68.442C63.302 76.812 63.345 77.307 63.986 130C64.564 177.51 64.723 180.866 66.672 186.674C72.172 203.07 84.312 217.373 99.027 224.796C103.687 227.147 110.65 229.718 114.5 230.51C123.518 232.365 138.444 231.749 146.674 229.182M105.5 32.246C101.65 30.816 98.343 29.531 98.151 29.391C97.959 29.25 99.026 26.886 100.521 24.138C105.837 14.371 116 8.62 128.048 8.563C140.603 8.502 150.711 14.655 156.437 25.843C157.378 27.682 158.002 29.292 157.824 29.421C157.646 29.55 154.244 30.794 150.264 32.185L143.029 34.714L141.021 31.311C138.885 27.69 132.351 24.044 128 24.044C123.563 24.044 117.116 27.689 114.895 31.454C113.744 33.404 112.734 34.965 112.651 34.922C112.568 34.88 109.35 33.675 105.5 32.246" />
    <glyph glyph-name="stopwatch"
      unicode="&#xEA15;"
      horiz-adv-x="256" d="M91 245.5L91 240L107 240L123 240L123 232L123 224L128 224L133 224L133 232L133 240L149 240L165 240L165 245.5L165 251L128 251L91 251L91 245.5M198.975 211.474L195.558 207.949L215.272 188.234L234.986 168.52L238.73 172.263L242.474 176.007L222.996 195.504C212.284 206.227 203.266 215 202.956 215C202.646 215 200.855 213.413 198.975 211.474M115.5 207.36C91.53 203.572 71.114 193.191 55.456 176.828C42.82 163.622 35.801 151.504 30.36 133.5C27.85 125.196 27.639 123.147 27.624 107C27.607 87.45 28.788 81.213 35.387 65.985C48.212 36.39 75.533 14.288 107.776 7.426C118.025 5.245 137.975 5.245 148.224 7.426C180.467 14.288 207.788 36.39 220.613 65.985C227.212 81.213 228.393 87.45 228.376 107C228.361 123.147 228.15 125.196 225.64 133.5C220.199 151.504 213.18 163.622 200.544 176.828C187.313 190.655 170.315 200.464 151.5 205.131C143.646 207.08 122.148 208.411 115.5 207.36M151.826 194.08C195.202 181.472 222.794 140.945 217.898 97.036C214.421 65.859 196.503 40.087 168.5 25.99C153.685 18.531 145.634 16.681 128 16.681C116.351 16.681 111.927 17.101 105.5 18.818C95.076 21.603 79.178 29.66 71.026 36.288C41.13 60.597 29.827 101.611 43.059 137.771C53.113 165.247 76.179 186.432 104.211 193.936C115.066 196.842 115.377 196.872 130.5 196.528C141.092 196.287 146.283 195.691 151.826 194.08M123 133L123 101L155 101L187 101L187 106.5L187 112L160 112L133 112L133 138.5L133 165L128 165L123 165L123 133" />
    <glyph glyph-name="zoom"
      unicode="&#xEA17;"
      horiz-adv-x="256" d="M96.81 233.98C77.606 231.675 59.404 222.747 46.158 209.136C34.805 197.47 28.195 185.622 23.848 169.146C20.781 157.521 21.015 140.522 24.42 127.695C32.413 97.577 55.043 75.05 85.5 66.888C96.883 63.838 116.276 63.824 127.5 66.858C135.103 68.913 147.043 74.198 155.28 79.153L159.06 81.427L188.787 51.713L218.514 21.998L226.258 29.742L234.002 37.486L204.287 67.213L174.573 96.94L176.847 100.72C181.802 108.957 187.087 120.897 189.142 128.5C192.176 139.724 192.162 159.117 189.112 170.5C182.516 195.114 166.467 214.685 143.305 226.359C131.667 232.225 110.751 235.654 96.81 233.98M121.535 211.456C142.165 206.671 160.748 189.724 167.454 169.579C173.218 152.266 170.418 129.254 160.844 115.24C152.472 102.987 139.997 92.979 128.184 89.04C104.398 81.109 79.322 86.641 62.413 103.55C48.999 116.964 43 131.216 43 149.668C43 178.174 62.112 203.025 90.215 211.06C98.175 213.336 112.638 213.519 121.535 211.456" />
    <glyph glyph-name="money-bill-coin"
      unicode="&#xEA18;"
      horiz-adv-x="256" d="M46.076 240.866C38.472 239.605 32.585 236.396 26.089 229.972C19.432 223.389 16.487 217.786 15.066 209C13.666 200.342 13.666 112.658 15.066 104C17.539 88.708 28.645 76.411 43.47 72.55C51.65 70.419 102.346 70.282 107.36 72.377C111.923 74.284 114.542 79.827 113.036 84.391C110.757 91.297 109.144 91.912 92.514 92.222L77.598 92.5L75.336 98.822C72.342 107.19 69.736 111.412 63.598 117.836C56.802 124.949 51.052 128.826 43.252 131.551C39.699 132.793 36.379 134.221 35.875 134.725C35.36 135.24 35.078 145.001 35.23 157.021L35.5 178.401L41.659 180.605C50.643 183.82 55.74 187.131 62.6 194.207C69.706 201.537 72.228 205.493 75.337 214.178L77.601 220.5L128 220.5L178.399 220.5L180.604 214.341C183.889 205.166 187.255 200.046 194.747 192.828C204.835 183.111 217.11 178 230.362 178C234.93 178 236.014 178.405 238.563 181.065C241.249 183.868 241.53 184.84 241.847 192.435C242.282 202.83 240.579 214.116 237.705 219.891C234.82 225.687 225.616 234.926 219.972 237.691C217.513 238.896 212.575 240.356 209 240.934C200.943 242.237 53.97 242.176 46.076 240.866M53.091 216.196C52.049 214.163 49.464 210.768 47.348 208.652C43.295 204.599 36.379 200.498 35.72 201.757C34.718 203.672 37.393 211.122 40.284 214.464C42.61 217.155 44.883 218.54 48.5 219.471C51.25 220.18 53.834 220.564 54.243 220.325C54.651 220.087 54.133 218.228 53.091 216.196M213.717 216.403C215.508 215.036 217.414 213.095 217.952 212.089C219.265 209.635 220.893 202.227 220.259 201.592C219.316 200.649 212.522 204.782 208.652 208.652C204.782 212.522 200.649 219.316 201.592 220.259C202.646 221.313 210.592 218.786 213.717 216.403M113.73 192.644C99.155 186.488 90.178 174.266 89.207 159.254C88.266 144.72 94.892 131.464 106.907 123.844C114.562 118.989 121.493 120.905 124.025 128.574C125.637 133.461 124.143 136.632 117.542 142.33C111.078 147.911 109.05 153.757 111.028 161.105C112.26 165.68 117.408 171.444 121.728 173.087C125.313 174.45 131.297 174.192 135.346 172.5C141.218 170.047 144.753 170.553 148.6 174.4C154.603 180.403 152.605 187.592 143.655 192.191C140.449 193.839 137.216 194.412 129.5 194.704C120.644 195.038 118.84 194.803 113.73 192.644M158 161.743C153.034 159.515 147.141 153.924 144.844 149.26C142.788 145.084 142.483 142.933 142.358 131.727L142.216 118.953L138.456 115.965C129.685 108.994 127.479 102.402 128.185 85.263C128.582 75.65 128.967 73.732 131.304 69.745C132.77 67.242 135.838 63.821 138.121 62.142L142.272 59.09L142.414 45.795C142.575 30.773 143.803 27.014 150.455 21.174C158.352 14.24 156.461 14.5 199 14.5C237.434 14.5 237.507 14.504 241.881 16.837C247.984 20.093 252.77 25.621 254.517 31.432C256.398 37.685 256.432 56.043 254.573 61.252C252.828 66.142 248.544 71.699 244.732 74.017L241.695 75.864L241.597 88.932C241.544 96.12 241.836 102 242.247 102C243.9 102 251.281 109.618 253.322 113.432C255.262 117.055 255.5 119.032 255.5 131.5C255.5 147.121 254.542 150.273 247.838 156.699C241.296 162.97 241.005 163.007 198.782 162.932C172.787 162.886 159.698 162.505 158 161.743M233.8 140.8C235.288 139.312 235.414 125.642 233.965 122.934C232.973 121.08 231.522 121 199 121C159.915 121 163 120.1 163 131.5C163 142.897 159.938 142 198.835 142C223.763 142 232.914 141.686 233.8 140.8M47.348 104.348C51.431 100.265 55.485 93.401 54.243 92.675C52.43 91.615 43.576 94.963 40.769 97.769C37.963 100.576 34.615 109.43 35.675 111.243C36.401 112.485 43.265 108.431 47.348 104.348M220 98.309C220.275 98.047 220.5 93.804 220.5 88.88C220.5 82.01 220.151 79.706 219 78.979C218.134 78.431 203.469 78.024 184.285 78.015C145.86 77.998 148.99 77.007 149.015 89.184C149.031 96.68 149.512 98.383 151.823 99.124C153.609 99.697 219.367 98.91 220 98.309M233.965 55.066C235.258 52.649 235.301 39.025 234.022 37C233.217 35.726 228.104 35.457 200.076 35.211C168.003 34.931 167.02 34.98 165.039 36.961C163.41 38.59 163 40.293 163 45.435C163 48.974 163.439 53.024 163.975 54.435L164.95 57L198.94 57C231.521 57 232.973 56.92 233.965 55.066" />
    <glyph glyph-name="office"
      unicode="&#xEA19;"
      horiz-adv-x="256" d="M216.8888888888889 177.7777777777778H160C146.2755555555556 177.7777777777778 135.1111111111111 166.6133333333334 135.1111111111111 152.8888888888889V35.5555555555556H120.8888888888889V117.3333333333334C120.8888888888889 131.0577777777778 109.7244444444445 142.2222222222222 96 142.2222222222222H39.1111111111111C25.3866666666667 142.2222222222222 14.2222222222222 131.0577777777778 14.2222222222222 117.3333333333334V39.1111111111111C14.2222222222222 25.3866666666667 25.3866666666667 14.2222222222223 39.1111111111111 14.2222222222223H216.8888888888889C230.6133333333334 14.2222222222223 241.7777777777778 25.3866666666667 241.7777777777778 39.1111111111111V152.8888888888889C241.7777777777778 166.6133333333334 230.6133333333333 177.7777777777778 216.8888888888889 177.7777777777778zM74.6666666666667 49.7777777777778H60.4444444444444C54.5564444444444 49.7777777777778 49.7777777777778 54.5564444444445 49.7777777777778 60.4444444444445S54.5564444444444 71.1111111111111 60.4444444444444 71.1111111111111H74.6666666666667C80.5546666666667 71.1111111111111 85.3333333333333 66.3324444444444 85.3333333333333 60.4444444444445S80.5546666666667 49.7777777777778 74.6666666666667 49.7777777777778zM74.6666666666667 85.3333333333334H60.4444444444444C54.5564444444444 85.3333333333334 49.7777777777778 90.1120000000001 49.7777777777778 96S54.5564444444444 106.6666666666667 60.4444444444444 106.6666666666667H74.6666666666667C80.5546666666667 106.6666666666667 85.3333333333333 101.888 85.3333333333333 96S80.5546666666667 85.3333333333334 74.6666666666667 85.3333333333334zM195.5555555555556 49.7777777777778H181.3333333333333C175.4453333333333 49.7777777777778 170.6666666666667 54.5564444444445 170.6666666666667 60.4444444444445S175.4453333333334 71.1111111111111 181.3333333333333 71.1111111111111H195.5555555555556C201.4435555555556 71.1111111111111 206.2222222222222 66.3324444444445 206.2222222222222 60.4444444444445S201.4435555555555 49.7777777777778 195.5555555555556 49.7777777777778zM195.5555555555556 85.3333333333334H181.3333333333333C175.4453333333333 85.3333333333334 170.6666666666667 90.1120000000001 170.6666666666667 96S175.4453333333334 106.6666666666667 181.3333333333333 106.6666666666667H195.5555555555556C201.4435555555556 106.6666666666667 206.2222222222222 101.888 206.2222222222222 96S201.4435555555555 85.3333333333334 195.5555555555556 85.3333333333334zM195.5555555555556 120.8888888888889H181.3333333333333C175.4453333333333 120.8888888888889 170.6666666666667 125.6675555555556 170.6666666666667 131.5555555555556S175.4453333333334 142.2222222222223 181.3333333333333 142.2222222222223H195.5555555555556C201.4435555555556 142.2222222222223 206.2222222222222 137.4435555555556 206.2222222222222 131.5555555555556S201.4435555555555 120.8888888888889 195.5555555555556 120.8888888888889zM74.6666666666667 156.4444444444445C68.7786666666667 156.4444444444445 64 161.2231111111111 64 167.1111111111112V192.7395555555556C64 203.136 70.5564444444444 212.5368888888889 80.3271111111111 216.1066666666667L158.5351111111111 244.7786666666667C166.1724444444444 247.5804444444445 174.6915555555556 246.4711111111111 181.3475555555556 241.8204444444445S191.9857777777778 229.5466666666667 191.9857777777778 221.4115555555555V202.6666666666667C191.9857777777778 196.7786666666667 187.2071111111111 192 181.3191111111111 192S170.6524444444445 196.7786666666667 170.6524444444445 202.6666666666667V221.4115555555555C170.6524444444445 223.0186666666667 169.6995555555556 223.9288888888889 169.1306666666667 224.3271111111111S167.3813333333334 225.28 165.8737777777778 224.7537777777778L87.6515555555556 196.0675555555556C86.2435555555556 195.5555555555556 85.3191111111111 194.2186666666667 85.3191111111111 192.7395555555556V167.1111111111111C85.3191111111111 161.2231111111111 80.5404444444445 156.4444444444445 74.6524444444445 156.4444444444445z" />
    <glyph glyph-name="tabs-plus"
      unicode="&#xEA1A;"
      horiz-adv-x="256" d="M61.798 228.069C45.436 222.838 32.379 209.479 27.586 193.068C25.205 184.916 25.205 71.084 27.586 62.932C32.473 46.197 46.216 32.453 62.932 27.583C67.3 26.31 73.729 26 95.782 26L123.2 26L126.521 29.321C130.787 33.587 131.803 38.506 129.444 43.478C126.205 50.303 125.597 50.442 96.549 51C71.67 51.478 70.283 51.607 65.673 53.876C59.164 57.081 53.479 64.375 52.023 71.391C51.254 75.093 50.997 93.815 51.202 131.141L51.5 185.5L53.876 190.327C56.992 196.656 64.344 202.479 71.029 203.913C73.941 204.537 87.12 205 101.995 205L127.892 205L128.196 183.017L128.5 161.034L131.768 157.767L135.036 154.5L169.768 154L204.5 153.5L205 143.448C205.569 132.008 206.784 129.279 212.522 126.556C217.494 124.197 222.413 125.213 226.679 129.479L230 132.8L230 160.218C230 182.271 229.69 188.7 228.417 193.068C223.547 209.784 209.803 223.527 193.068 228.414C188.366 229.787 179.572 229.993 127.568 229.946C72.282 229.897 67.046 229.747 61.798 228.069M173.116 126.288C167.494 123.518 166.048 118.822 166.022 103.25L166 90L152.75 89.978C142.023 89.96 138.724 89.604 135.424 88.105C128.577 84.995 126.04 76.727 129.96 70.299C133.29 64.837 136.212 64 151.95 64L166 64L166.006 51.25C166.012 36.294 166.967 32.047 171.106 28.564C173.477 26.57 175.25 26 179.091 26C183.318 26 184.567 26.493 187.765 29.421L191.5 32.841L191.819 48.351L192.139 63.861L207.649 64.181L223.159 64.5L226.579 68.235C229.507 71.433 230 72.682 230 76.909C230 80.75 229.43 82.523 227.436 84.894C223.953 89.033 219.706 89.988 204.75 89.994L192 90L191.996 104.25C191.993 116.619 191.735 118.923 190.04 121.701C186.412 127.652 179.622 129.492 173.116 126.288" />
    <glyph glyph-name="shield-check"
      unicode="&#xEA1B;"
      horiz-adv-x="256" d="M117 238.904C113.425 237.746 96.068 232.159 78.428 226.487C40.518 214.299 39.862 214.041 35.877 209.794C28.814 202.267 29.046 204.472 29.022 144.654C29.003 97.865 29.213 90.067 30.627 85.154C32.892 77.281 35.354 72.63 41.653 64.327C54.049 47.985 76.421 33.285 108.5 20.404C119.117 16.141 121.365 15.585 128 15.585C134.635 15.585 136.883 16.141 147.5 20.404C179.579 33.285 201.951 47.985 214.347 64.327C220.646 72.63 223.108 77.281 225.373 85.154C226.787 90.067 226.997 97.865 226.978 144.654C226.953 205.18 227.244 202.68 219.369 210.19C214.651 214.69 217.452 213.616 172.5 228.167C131.058 241.581 127.431 242.282 117 238.904M144.5 214.573C152.75 211.98 169.978 206.494 182.784 202.381L206.068 194.902L205.784 143.147L205.5 91.392L202.052 84.6C193.658 68.068 169.12 50.894 137.75 39.598L128 36.086L118.25 39.598C86.88 50.894 62.342 68.068 53.948 84.6L50.5 91.392L50.216 143.147L49.932 194.902L73.216 202.38C86.022 206.493 103.475 212.101 112 214.843C120.525 217.584 127.95 219.706 128.5 219.557C129.05 219.409 136.25 217.166 144.5 214.573M157.709 168.897C156.724 168.324 146.45 155.247 134.878 139.837L113.837 111.82L106.552 118.884C102.545 122.769 97.974 126.44 96.394 127.04C87.063 130.588 78.325 120.09 83.757 111.858C86.828 107.203 109.318 87.05 112.68 85.941C119.223 83.781 120.792 85.375 148.447 122.259C171.673 153.238 174 156.697 174 160.248C174 165.933 169.732 170.011 163.827 169.97C161.447 169.953 158.694 169.47 157.709 168.897" />
    <glyph glyph-name="file-text"
      unicode="&#xEA1C;"
      horiz-adv-x="256" d="M61.75 215.267L32 185.488L32 111.281C32 39.118 32.056 36.925 34.033 31.64C36.623 24.719 42.317 18.248 49.145 14.466L54.5 11.5L128 11.5L201.5 11.5L206.855 14.466C213.683 18.248 219.377 24.719 221.967 31.64C223.956 36.958 224 39.026 224 128C224 217.198 223.961 219.029 221.951 224.401C219.522 230.893 212.462 238.744 206 242.137L201.5 244.5L146.5 244.773L91.5 245.047L61.75 215.267M197.128 222.434C203.185 219.302 203 222.282 203 127.933C203 33.081 203.235 36.724 196.915 33.456C192.703 31.278 63.297 31.278 59.085 33.456C52.888 36.661 53 35.317 53 106.401L53 171L80 171L107 171L107 197.5L107 224L150.55 224C188.125 224 194.515 223.785 197.128 222.434M128 160L128 149L154.5 149L181 149L181 160L181 171L154.5 171L128 171L128 160M75 117.5L75 107L128 107L181 107L181 117.5L181 128L128 128L75 128L75 117.5M75 74.5L75 64L128 64L181 64L181 74.5L181 85L128 85L75 85L75 74.5" />
    <glyph glyph-name="users-filled"
      unicode="&#xEA1D;"
      horiz-adv-x="256" d="M159.624 228.049C149.065 223.823 140.839 215.521 136.959 205.174C133.88 196.962 134.441 183.817 138.215 175.73C141.565 168.551 149.635 160.535 156.983 157.088C161.766 154.844 163.83 154.5 172.5 154.5C181.612 154.5 183.077 154.775 189 157.595C202.849 164.188 210.97 176.905 210.97 192C210.97 207.095 202.848 219.813 189 226.405C183.448 229.048 181.188 229.536 173.5 229.75C166.476 229.945 163.429 229.572 159.624 228.049M73.384 190.588C62.878 188.039 53.821 180.292 48.307 169.139C44.872 162.192 44.04 150.968 46.376 143.104C53.021 120.735 77.954 109.366 99.481 118.888C105.784 121.677 114.107 129.884 117.577 136.732C120.281 142.068 120.5 143.325 120.5 153.5C120.5 166.554 118.769 171.14 110.554 179.859C100.823 190.186 87.532 194.022 73.384 190.588M160.5 139.576C148.213 136.757 138.395 131.604 128.638 122.852L123.776 118.491L131.611 113.528C147.029 103.761 161.967 85.154 166.622 69.918L168.5 63.772L178.008 64.375C193.929 65.385 206.125 68.409 220.422 74.892C232.213 80.238 236.254 89.616 231.664 100.981C224.645 118.358 207.337 133.812 189.769 138.388C181.203 140.619 167.477 141.176 160.5 139.576M66.215 100.06C49.37 95.244 34.924 83.433 27.001 68C18.679 51.79 22.035 41.99 38.277 35.08C45.198 32.136 58.408 28.341 66.598 26.944C76.893 25.189 99.357 26.22 109.5 28.913C123.16 32.54 134.059 37.136 138.079 40.964C148.269 50.667 144.302 66.728 127.547 83.606C118.789 92.428 110.145 97.409 98.356 100.427C90.014 102.563 74.34 102.384 66.215 100.06" />
    <glyph glyph-name="msg-writing"
      unicode="&#xEA1E;"
      horiz-adv-x="256" d="M114.5 240.847C97.627 238.968 77.39 231.228 62.583 220.992C53.829 214.94 40.21 201.145 34.082 192.121C11.177 158.391 8.134 113.828 26.258 77.541C30.057 69.934 30.213 69.248 29.779 62.041C29.229 52.881 25.133 42.45 18.931 34.411C15.683 30.2 14.727 28.096 14.727 25.154C14.727 19.972 17.39 16.263 22.128 14.843C30.364 12.376 56.104 17.197 70.597 23.922C75.21 26.063 77.131 26.506 78.493 25.744C82.255 23.639 92.794 19.858 100.182 17.963C131.698 9.879 166.187 16.184 193.417 35.008C202.171 41.06 215.79 54.855 221.918 63.879C244.478 97.1 247.783 140.209 230.562 176.623C224.777 188.856 219.239 196.784 209.228 207.169C190.915 226.166 166.389 238.1 139.789 240.957C128.876 242.129 125.892 242.116 114.5 240.847M150.439 217.597C179.908 209.31 202.596 189.381 213.612 162.109C218.554 149.873 219.5 144.394 219.5 128C219.5 111.606 218.554 106.127 213.612 93.891C204.201 70.592 185.408 51.799 162.109 42.388C149.691 37.372 144.476 36.496 127.5 36.572C113.107 36.636 110.617 36.913 102.712 39.328C97.878 40.805 90.802 43.585 86.987 45.507C78.432 49.815 74.616 49.925 67.735 46.06C62.912 43.351 47.081 37.585 46.383 38.283C46.217 38.45 46.929 41.312 47.967 44.645C50.533 52.889 52.099 64.924 51.361 70.717C51.026 73.348 48.963 79.325 46.778 84C38.563 101.573 36 112.034 36 128C36 144.522 39.184 157.067 47.226 172.231C52.099 181.422 63.086 194.527 71.074 200.678C81.374 208.609 96.143 215.419 110 218.627C117.734 220.417 142.669 219.782 150.439 217.597M73 141.294C68.473 139.639 64 133.032 64 128C64 117.891 75.843 110.765 84.879 115.437C94.241 120.279 94.374 135.653 85.094 140.451C82.171 141.963 76.005 142.392 73 141.294M123 141.347C120.61 140.388 116.931 136.732 115.405 133.8C112.573 128.357 114.112 122.021 119.486 117C121.707 114.924 123.152 114.5 128 114.5C132.848 114.5 134.293 114.924 136.514 117C143.753 123.763 143.796 132.197 136.628 138.894C134.046 141.306 126.349 142.692 123 141.347M172.071 140.297C162.507 135.285 161.6 122.967 170.325 116.571C173.923 113.933 181.363 113.881 185.308 116.466C192.804 121.378 192.984 134.504 185.622 139.328C181.62 141.95 175.995 142.352 172.071 140.297" />
    <glyph glyph-name="arrow-door-out-3"
      unicode="&#xEA1F;"
      horiz-adv-x="256" d="M167.1111111111111 92.4444444444445C161.2231111111111 92.4444444444445 156.4444444444445 87.6657777777778 156.4444444444445 81.7777777777778V46.2222222222222C156.4444444444445 44.2595555555556 154.8515555555556 42.6666666666667 152.8888888888889 42.6666666666667H77.4826666666667L102.016 57.8702222222223C109.3831111111111 62.4497777777778 113.7777777777778 70.3573333333334 113.7777777777778 79.0186666666667V176.9671111111111C113.7777777777778 185.6284444444444 109.3688888888889 193.5502222222222 102.016 198.1155555555556L77.4826666666667 213.3191111111111H152.8888888888889C154.8515555555556 213.3191111111111 156.4444444444444 211.7262222222222 156.4444444444444 209.7635555555556V174.208C156.4444444444444 168.32 161.2231111111111 163.5413333333334 167.1111111111111 163.5413333333334S177.7777777777778 168.32 177.7777777777778 174.208V209.7777777777778C177.7777777777778 223.5022222222222 166.6133333333333 234.6666666666667 152.8888888888889 234.6666666666667H60.4444444444444C46.72 234.6666666666667 35.5555555555556 223.5022222222222 35.5555555555556 209.7777777777778V46.2222222222222C35.5555555555556 32.4977777777778 46.72 21.3333333333333 60.4444444444444 21.3333333333333H152.8888888888889C166.6133333333334 21.3333333333333 177.7777777777778 32.4977777777778 177.7777777777778 46.2222222222222V81.7777777777778C177.7777777777778 87.6657777777778 172.9991111111111 92.4444444444444 167.1111111111111 92.4444444444444zM252.8711111111111 135.5377777777778L213.76 174.6488888888889C209.5928888888889 178.816 202.8373333333333 178.816 198.6702222222222 174.6488888888889S194.5031111111111 163.7262222222222 198.6702222222222 159.5591111111111L219.5768888888889 138.6524444444444H160C154.112 138.6524444444444 149.3333333333334 133.8737777777778 149.3333333333334 127.9857777777778S154.112 117.3191111111111 160 117.3191111111111H219.5768888888889L198.6702222222222 96.4124444444445C194.5031111111112 92.2453333333334 194.5031111111112 85.4897777777778 198.6702222222222 81.3226666666667C200.7466666666667 79.2462222222222 203.4773333333334 78.1937777777778 206.208 78.1937777777778S211.6693333333334 79.232 213.7457777777778 81.3226666666667L252.856888888889 120.4337777777778C257.0240000000001 124.6008888888889 257.0240000000001 131.3564444444444 252.856888888889 135.5235555555556z" />
    <glyph glyph-name="arrow-door-in"
      unicode="&#xEA20;"
      horiz-adv-x="256" d="M209.7777777777778 234.6666666666667H117.3333333333333C103.6088888888889 234.6666666666667 92.4444444444444 223.5022222222222 92.4444444444444 209.7777777777778V174.2222222222222C92.4444444444444 168.3342222222222 97.2231111111111 163.5555555555556 103.1111111111111 163.5555555555556S113.7777777777778 168.3342222222222 113.7777777777778 174.2222222222222V209.7777777777778C113.7777777777778 211.7404444444445 115.3706666666667 213.3333333333334 117.3333333333334 213.3333333333334H192.7395555555556L168.2204444444445 198.1297777777778C160.8533333333334 193.5644444444445 156.4444444444445 185.6568888888889 156.4444444444445 176.9813333333334V79.0328888888889C156.4444444444445 70.3573333333334 160.8533333333334 62.4497777777778 168.2204444444445 57.8844444444445L192.7395555555556 42.6808888888889H117.3333333333334C115.3706666666667 42.6808888888889 113.7777777777778 44.2737777777778 113.7777777777778 46.2364444444445V81.792C113.7777777777778 87.68 108.9991111111111 92.4586666666667 103.1111111111111 92.4586666666667S92.4444444444445 87.68 92.4444444444445 81.792V46.2364444444445C92.4444444444445 32.5120000000001 103.6088888888889 21.3475555555556 117.3333333333334 21.3475555555556H209.7777777777778C223.5022222222222 21.3475555555556 234.6666666666667 32.5120000000001 234.6666666666667 46.2364444444445V209.7777777777778C234.6666666666667 223.5022222222222 223.5022222222222 234.6666666666667 209.7777777777778 234.6666666666667zM103.5377777777778 135.5377777777778L64.4266666666667 174.6488888888889C60.2595555555556 178.816 53.504 178.816 49.3368888888889 174.6488888888889S45.1697777777778 163.7262222222222 49.3368888888889 159.5591111111111L70.2435555555556 138.6524444444444H10.6666666666667C4.7786666666667 138.6524444444444 0 133.8737777777778 0 127.9857777777778S4.7786666666667 117.3191111111111 10.6666666666667 117.3191111111111H70.2435555555556L49.3368888888889 96.4124444444445C45.1697777777778 92.2453333333334 45.1697777777778 85.4897777777778 49.3368888888889 81.3226666666667C51.4133333333333 79.2462222222222 54.144 78.1937777777778 56.8746666666667 78.1937777777778S62.336 79.232 64.4124444444445 81.3226666666667L103.5235555555556 120.4337777777778C107.6906666666667 124.6008888888889 107.6906666666667 131.3564444444444 103.5235555555556 135.5235555555556z" />
    <glyph glyph-name="heart"
      unicode="&#xEA21;"
      horiz-adv-x="256" d="M179 240A66.808 66.808 0 0 1 128 216.8A66.808 66.808 0 0 1 77 240A69.384 69.384 0 0 1 8 170.4C8 105.288 118.248 13.24 123.496 9.496A5.528 5.528 0 0 1 128 8A8.096 8.096 0 0 1 132.504 9.496C137.752 13.24 248 106.04 248 170.4A69.384 69.384 0 0 1 179 240z" />
    <glyph glyph-name="reload"
      unicode="&#xEA22;"
      horiz-adv-x="256" d="M120.5 250.382C118.3 250.183 113.125 249.529 109 248.928C76.361 244.179 44.16 223.728 26.45 196.5C13.342 176.349 7.813 159.858 5.576 134.25L5.031 128L10.358 128L15.686 128L16.92 139.547C18.493 154.275 20.91 162.965 26.975 175.704C43.007 209.378 72.894 231.971 110.059 238.512C143.114 244.329 180.504 232.656 205.832 208.612C210.847 203.851 220.442 192.109 219.823 191.49C219.592 191.258 208.205 194.204 194.519 198.035C180.833 201.866 169.136 205 168.525 205C167.915 205 166.853 202.9 166.167 200.334C164.908 195.629 165.488 194.061 168.502 194.015C169.054 194.007 184.787 189.746 203.465 184.546C222.144 179.347 237.635 175.302 237.89 175.557C238.317 175.983 230.521 240.994 229.298 247.215C228.787 249.814 228.566 249.904 224.132 249.324C221.584 248.991 219.297 248.541 219.049 248.325C218.596 247.93 222.698 211.681 223.726 207C224.14 205.112 222.439 206.458 216.774 212.5C203.583 226.571 185.288 238.043 165.946 244.374C152.102 248.905 132.624 251.48 120.5 250.382M239.999 122.75C239.994 104.094 230.563 78.36 217.154 60.418C196.425 32.68 162.659 15.996 127.261 16.001C101.645 16.005 72.309 27.33 53.044 44.65C47.775 49.388 35.485 63.819 36.152 64.486C36.357 64.691 47.749 61.74 61.467 57.929C75.185 54.118 86.898 51 87.497 51C88.53 51 91.472 59.861 90.696 60.637C89.726 61.607 18.705 81.039 18.152 80.485C17.648 79.981 26.668 6.998 27.314 6.352C27.512 6.155 29.772 6.281 32.337 6.633C36.536 7.208 37 7.532 36.998 9.886C36.996 12.512 33.507 41.532 32.426 47.914C31.865 51.224 32.073 51.088 39.296 43.414C56.191 25.46 80.73 12.185 105.957 7.349C116.577 5.314 136.636 5.112 148 6.926C165.216 9.675 187.202 19.085 201.915 30C218.594 42.376 233.904 62.646 242.116 83.23C246.348 93.837 248.95 105.8 250.494 121.75L251.099 128L245.55 128L240 128L239.999 122.75" />
    <glyph glyph-name="loop"
      unicode="&#xEA23;"
      horiz-adv-x="256" d="M185.988 245.488L180.544 239.975L200.492 220.008L220.44 200.042L129.97 199.771L39.5 199.5L34.75 197.161C28.458 194.062 21.977 187.631 18.953 181.484C16.586 176.675 16.489 175.649 16.186 152.25L15.871 128L23.883 128L31.895 128L32.198 150.929C32.53 176.116 32.588 176.363 39.385 181.438C42.119 183.48 43.021 183.503 131.323 183.764L220.5 184.028L200.51 164.015L180.52 144.001L186.265 138.257L192.009 132.513L221.75 162.254L251.492 191.996L222.002 221.498C205.783 237.724 192.269 251 191.972 251C191.675 251 188.982 248.519 185.988 245.488M223.802 105.071C223.47 79.884 223.412 79.637 216.615 74.562C213.881 72.52 212.979 72.497 124.677 72.236L35.5 71.972L55.49 91.985L75.48 111.999L69.735 117.743L63.991 123.487L34.248 93.744L4.504 64L34.248 34.256L63.991 4.513L69.735 10.257L75.48 16.001L55.52 35.98L35.56 55.958L126.03 56.229L216.5 56.5L221.484 58.953C227.631 61.977 234.062 68.458 237.161 74.75C239.386 79.269 239.515 80.682 239.814 103.75L240.129 128L232.117 128L224.105 128L223.802 105.071" />
    <glyph glyph-name="replay"
      unicode="&#xEA24;"
      horiz-adv-x="256" d="M224 202.6666666666667H213.3333333333333A10.6666666666667 10.6666666666667 0 0 1 213.3333333333333 181.3333333333334H224A10.6666666666667 10.6666666666667 0 0 0 234.6666666666667 170.6666666666667V85.3333333333333A10.6666666666667 10.6666666666667 0 0 0 224 74.6666666666667H149.3333333333333V106.6666666666667A10.6666666666667 10.6666666666667 0 0 1 132 114.9973333333334L78.6666666666666 72.3306666666667A10.6666666666667 10.6666666666667 0 0 1 78.6666666666666 55.6693333333334L132 13.0026666666667A10.6666666666667 10.6666666666667 0 0 1 149.3333333333333 21.3333333333333V53.3333333333333H224A32 32 0 0 1 256 85.3333333333333V170.6666666666667A32 32 0 0 1 224 202.6666666666667zM42.6666666666667 74.6666666666667H32A10.6666666666667 10.6666666666667 0 0 0 21.3333333333333 85.3333333333333V170.6666666666667A10.6666666666667 10.6666666666667 0 0 0 32 181.3333333333334H106.6666666666667V149.3333333333334A10.6666666666667 10.6666666666667 0 0 1 124 141.0026666666667L177.3333333333333 183.6693333333333A10.6666666666667 10.6666666666667 0 0 1 177.3333333333333 200.3306666666667L124 242.9973333333334A10.6666666666667 10.6666666666667 0 0 1 106.6666666666667 234.6666666666667V202.6666666666667H32A32 32 0 0 1 0 170.6666666666667V85.3333333333333A32 32 0 0 1 32 53.3333333333333H42.6666666666667A10.6666666666667 10.6666666666667 0 0 1 42.6666666666667 74.6666666666667z" />
    <glyph glyph-name="dark-light"
      unicode="&#xEA25;"
      horiz-adv-x="256" d="M116 241.006C77.219 236.848 43.407 213.055 25.756 177.5C17.922 161.719 14.792 147.587 14.792 128C14.792 108.413 17.922 94.281 25.756 78.5C36.92 56.013 54.551 38.084 76.585 26.812C93.855 17.978 107.484 14.792 128 14.792C148.516 14.792 162.145 17.978 179.415 26.812C210.573 42.751 231.985 70.931 239.583 106C241.786 116.164 241.786 139.836 239.583 150C229.673 195.741 195.252 230.277 150.5 239.383C141.28 241.258 125.35 242.008 116 241.006M145.685 218.55C158.152 215.897 171 210.536 180.415 204.059C186.758 199.694 199.754 186.735 203.975 180.564C214.451 165.251 220 147.049 220 128C220 109.003 214.414 90.636 204.059 75.585C199.694 69.242 186.735 56.246 180.564 52.025C167.216 42.893 146.942 36 133.435 36L128 36L128 60.481L128 84.962L125.25 85.504C110.472 88.419 104.732 91.089 97.678 98.33C81.44 115.002 81.731 142.153 98.321 158.312C104.082 163.924 113.132 168.63 119.932 169.55C128.804 170.75 128 168.159 128 195.567L128 220L133.435 220C136.424 220 141.936 219.347 145.685 218.55M128 128L128 84.877L132.75 85.569C152.386 88.429 166.693 102.337 170.142 121.917C172.736 136.645 164.981 154.525 152.378 162.873C146.783 166.579 139.231 169.487 132.75 170.431L128 171.123L128 128" />
    <glyph glyph-name="uea16-"
      unicode="&#xEA01;"
      horiz-adv-x="256" d="M195.754 238.59C190.58 236.462 184.863 231.155 138.254 185.216L86.5 134.205L78.719 102.967C74.44 85.785 71.121 71.545 71.345 71.322C71.568 71.099 85.778 74.422 102.923 78.708L134.096 86.5L185.385 138.5C233.143 186.919 236.824 190.899 238.837 196.288C242.044 204.869 241.798 213.818 238.145 221.5C230.447 237.69 211.824 245.198 195.754 238.59M41.576 221.517C33.866 218.347 26.688 211.309 23.738 204.026L21.5 198.5L21.5 122.479L21.5 46.458L24.8 39.755C28.449 32.342 33.571 27.462 41.58 23.769L46.5 21.5L122.5 21.5L198.5 21.5L204.131 23.777C211.541 26.774 218.919 34.495 221.844 42.313C223.899 47.805 224 49.693 224 82.538L224 117L213.5 117L203 117L203 84.968C203 50.608 202.667 47.981 197.883 44.631C195.782 43.159 188.397 43 122.179 43L48.802 43L45.901 46.106L43 49.212L43 122.383C43 188.413 43.159 195.782 44.631 197.883C47.981 202.667 50.608 203 84.968 203L117 203L117 213.5L117 224L82.25 223.976C47.744 223.953 47.458 223.935 41.576 221.517M212.931 218.411C216.128 217.132 217.225 215.978 218.556 212.493C219.961 208.815 220.02 207.589 218.949 204.344C217.693 200.541 207.668 189 205.62 189C204.224 189 189 204.124 189 205.511C189 207.319 199.316 216.826 203 218.414C207.456 220.333 208.127 220.333 212.931 218.411M182.008 181.492L190.472 172.983L156.726 139.242L122.979 105.5L111.74 102.841C105.558 101.379 100.424 100.254 100.332 100.342C100.24 100.43 101.402 105.599 102.916 111.829L105.667 123.156L139.078 156.578C157.454 174.96 172.726 190 173.016 190C173.307 190 177.353 186.171 182.008 181.492" />
  </font>
</defs>
</svg>
